# xmcd
# 
# Track frame offsets:
#     150
#     29840
#     40850
#     69907
#     85257
#     98860
#     126545
# 
# Disc length: 1735
# 
# Revision: 12
# Processed by: cddbd v1.5.2PL0 Copyright (c) Steve Scherf et al.
# Submitted via: BonkEnc v1.0.8
# 
DISCID=5e06c507
DTITLE=Squarepusher - Big Loada
DYEAR=1997
DGENRE=Electronic
TTITLE0=A Journey To Reedham (7AM Mix)
TTITLE1=Full Rinse (featuring MC Twin Tub)
TTITLE2=Massif (Stay Strong)
TTITLE3=Come On My Selector
TTITLE4=The Body Builder (Dressing Gown Mix)
TTITLE5=Tequila Fish
TTITLE6=Jaques Mal Chance (Il N'a Pas De Chance)
EXTD=YEAR: 1997
EXTT0=
EXTT1=
EXTT2=
EXTT3=
EXTT4=
EXTT5=
EXTT6=
PLAYORDER=
